<svg width="274" height="52" viewBox="0 0 274 52" fill="none" xmlns="http://www.w3.org/2000/svg">
<path d="M64 35.2571V13H67.53V35.2589H64V35.2571Z" fill="white"/>
<path d="M70.3128 35.2571V19.095H73.543V22.2616L73.1545 21.8441C73.5541 20.828 74.1906 20.0576 75.0693 19.5292C75.9463 19.0008 76.9638 18.7366 78.1201 18.7366C79.2764 18.7366 80.3735 18.9952 81.2912 19.5125C82.2088 20.0298 82.9266 20.7485 83.4447 21.663C83.9627 22.5794 84.2217 23.6344 84.2217 24.8297V35.2571H80.8416V25.7257C80.8416 24.9295 80.6917 24.2477 80.392 23.6787C80.0923 23.1115 79.6742 22.6681 79.1358 22.3485C78.5975 22.0307 77.9795 21.87 77.2802 21.87C76.5809 21.87 75.9592 22.0289 75.4098 22.3485C74.8603 22.6681 74.4366 23.1097 74.1388 23.6787C73.839 24.2459 73.6892 24.9295 73.6892 25.7257V35.2571H70.3091H70.3128Z" fill="white"/>
<path d="M94.038 35.6155C92.4229 35.6155 90.9872 35.2423 89.7292 34.4959C88.4711 33.7495 87.485 32.7389 86.7672 31.4641C86.0493 30.1894 85.6904 28.7446 85.6904 27.1317C85.6904 25.5188 86.0493 24.1036 86.7672 22.8288C87.485 21.554 88.473 20.5527 89.7292 19.8266C90.9854 19.1005 92.421 18.7366 94.038 18.7366C95.1351 18.7366 96.1619 18.9306 97.1202 19.3185C98.0786 19.7065 98.9111 20.2405 99.6179 20.9166C100.326 21.5947 100.85 22.391 101.189 23.3073L98.197 24.6523C97.8584 23.8154 97.3182 23.1429 96.5819 22.6348C95.8437 22.1268 94.9963 21.8737 94.038 21.8737C93.0797 21.8737 92.2971 22.1028 91.57 22.5609C90.8411 23.0191 90.2694 23.6473 89.8494 24.4436C89.4313 25.2398 89.2204 26.147 89.2204 27.1631C89.2204 28.1793 89.4294 29.0901 89.8494 29.8974C90.2675 30.7048 90.8411 31.3367 91.57 31.7949C92.2971 32.253 93.1204 32.4821 94.038 32.4821C94.9556 32.4821 95.8437 32.229 96.5819 31.721C97.3201 31.2129 97.8584 30.5311 98.197 29.6739L101.189 31.078C100.869 31.9353 100.356 32.7057 99.6475 33.393C98.9389 34.0802 98.1063 34.6234 97.1498 35.0206C96.1934 35.4178 95.1555 35.6174 94.038 35.6174V35.6155Z" fill="white"/>
<path d="M110.552 35.6155C108.937 35.6155 107.51 35.2423 106.273 34.4959C105.035 33.7495 104.069 32.7334 103.37 31.4494C102.672 30.1653 102.323 28.7261 102.323 27.1317C102.323 25.5373 102.671 24.0537 103.37 22.7993C104.067 21.5448 105.02 20.5545 106.226 19.8266C107.433 19.1005 108.785 18.7366 110.28 18.7366C111.516 18.7366 112.613 18.9453 113.571 19.3647C114.53 19.7841 115.336 20.355 115.995 21.0829C116.653 21.8108 117.157 22.6422 117.506 23.5771C117.856 24.5138 118.03 25.5096 118.03 26.5645C118.03 26.8232 118.019 27.0929 118 27.3719C117.98 27.6509 117.941 27.9095 117.88 28.1478H104.985V25.4597H115.936L114.35 26.6846C114.53 25.7091 114.459 24.8371 114.141 24.0704C113.821 23.3036 113.323 22.6958 112.644 22.2487C111.965 21.7998 111.179 21.5762 110.28 21.5762C109.381 21.5762 108.615 21.7998 107.917 22.2487C107.218 22.6977 106.68 23.3387 106.302 24.1757C105.923 25.0126 105.773 26.0084 105.853 27.1631C105.753 28.2587 105.908 29.2139 106.317 30.0305C106.726 30.8471 107.305 31.4845 108.052 31.9427C108.8 32.4008 109.644 32.6299 110.582 32.6299C111.579 32.6299 112.417 32.4119 113.094 31.9722C113.771 31.5344 114.321 30.9672 114.739 30.2688L117.492 31.6434C117.172 32.4008 116.679 33.077 116.01 33.6756C115.342 34.2724 114.544 34.7472 113.616 35.0945C112.687 35.4419 111.666 35.6174 110.548 35.6174L110.552 35.6155Z" fill="white"/>
<path d="M119.827 41.2338V19.095H123.057V22.4408L122.668 21.6649C123.266 20.7485 124.063 20.0317 125.062 19.5144C126.059 18.9971 127.195 18.7384 128.472 18.7384C130.008 18.7384 131.39 19.1079 132.616 19.8432C133.843 20.5804 134.81 21.5873 135.519 22.8602C136.228 24.135 136.581 25.5687 136.581 27.1631C136.581 28.7575 136.226 30.1912 135.519 31.466C134.81 32.7408 133.848 33.7514 132.631 34.4978C131.414 35.2442 130.028 35.6174 128.472 35.6174C127.216 35.6174 126.074 35.3587 125.046 34.8414C124.019 34.3241 123.225 33.5777 122.666 32.6004L123.205 31.9722V41.2338H119.825H119.827ZM128.113 32.4803C129.071 32.4803 129.922 32.2512 130.672 31.793C131.419 31.3348 132.004 30.703 132.422 29.8956C132.84 29.0882 133.051 28.1774 133.051 27.1613C133.051 26.1451 132.842 25.2454 132.422 24.4583C132.004 23.6713 131.419 23.045 130.672 22.5757C129.924 22.1083 129.071 21.8736 128.113 21.8736C127.155 21.8736 126.363 22.1027 125.615 22.5609C124.868 23.0191 124.28 23.651 123.85 24.4583C123.421 25.2657 123.207 26.1654 123.207 27.1613C123.207 28.1571 123.421 29.0882 123.85 29.8956C124.28 30.703 124.868 31.3348 125.615 31.793C126.363 32.2512 127.195 32.4803 128.113 32.4803Z" fill="white"/>
<path d="M145.078 35.4363C143.384 35.4363 142.066 34.9577 141.128 34.0026C140.19 33.0474 139.722 31.7024 139.722 29.9694V22.171H136.851V19.0931H137.301C138.059 19.0931 138.651 18.8751 139.08 18.4354C139.51 17.9975 139.724 17.4007 139.724 16.6433V15.3888H143.104V19.0931H146.784V22.171H143.104V29.8198C143.104 30.3777 143.193 30.8507 143.374 31.2387C143.554 31.6267 143.843 31.926 144.242 32.1347C144.642 32.3435 145.16 32.4488 145.798 32.4488C145.957 32.4488 146.137 32.4396 146.336 32.4192C146.536 32.3989 146.725 32.3786 146.904 32.3601V35.2589C146.625 35.2995 146.316 35.3383 145.978 35.379C145.639 35.4196 145.339 35.4381 145.08 35.4381L145.078 35.4363Z" fill="white"/>
<path d="M148.699 16.8835V13H152.079V16.8835H148.699ZM148.699 35.2571V19.095H152.079V35.2589H148.699V35.2571Z" fill="white"/>
<path d="M162.341 35.6155C160.765 35.6155 159.339 35.2479 158.062 34.5107C156.786 33.7735 155.768 32.7685 155.011 31.4937C154.253 30.2189 153.875 28.7742 153.875 27.1613C153.875 25.5484 154.249 24.0796 154.997 22.8141C155.744 21.5503 156.756 20.5545 158.033 19.8266C159.309 19.1005 160.745 18.7366 162.341 18.7366C163.938 18.7366 165.368 19.1005 166.636 19.8266C167.901 20.5545 168.909 21.5503 169.657 22.8141C170.404 24.0796 170.778 25.5281 170.778 27.1613C170.778 28.7945 170.399 30.2485 169.64 31.5233C168.882 32.7981 167.864 33.7994 166.589 34.5255C165.313 35.2534 163.897 35.6155 162.341 35.6155ZM162.341 32.4784C163.279 32.4784 164.116 32.2493 164.854 31.7912C165.592 31.333 166.175 30.7011 166.604 29.8938C167.033 29.0864 167.248 28.1756 167.248 27.1594C167.248 26.1433 167.033 25.2435 166.604 24.4565C166.175 23.6695 165.592 23.0431 164.854 22.5739C164.116 22.1065 163.278 21.8718 162.341 21.8718C161.405 21.8718 160.562 22.1065 159.812 22.5739C159.065 23.0413 158.477 23.6695 158.047 24.4565C157.618 25.2435 157.404 26.1451 157.404 27.1594C157.404 28.1737 157.618 29.0864 158.047 29.8938C158.477 30.7011 159.065 31.333 159.812 31.7912C160.56 32.2493 161.403 32.4784 162.341 32.4784Z" fill="white"/>
<path d="M172.572 35.2571V19.095H175.802V22.2616L175.414 21.8441C175.813 20.828 176.45 20.0576 177.329 19.5292C178.206 19.0008 179.223 18.7366 180.379 18.7366C181.536 18.7366 182.633 18.9952 183.55 19.5125C184.468 20.0298 185.186 20.7485 185.704 21.663C186.222 22.5794 186.481 23.6344 186.481 24.8297V35.2571H183.101V25.7257C183.101 24.9295 182.951 24.2477 182.651 23.6787C182.352 23.1115 181.933 22.6681 181.395 22.3485C180.857 22.0307 180.239 21.87 179.539 21.87C178.84 21.87 178.219 22.0289 177.669 22.3485C177.12 22.6681 176.696 23.1097 176.398 23.6787C176.098 24.2459 175.948 24.9295 175.948 25.7257V35.2571H172.568H172.572Z" fill="white"/>
<path d="M198.44 35.2571V13H206.547C208.044 13 209.365 13.2734 210.512 13.8221C211.659 14.3709 212.551 15.1671 213.189 16.2128C213.827 17.2585 214.146 18.5093 214.146 19.9615C214.146 21.4136 213.822 22.6311 213.173 23.6657C212.525 24.7022 211.631 25.4985 210.495 26.0564C209.36 26.6144 208.042 26.8934 206.546 26.8934H201.968V35.2589H198.438L198.44 35.2571ZM201.97 23.7544H206.638C207.435 23.7544 208.135 23.5955 208.732 23.2759C209.33 22.9581 209.794 22.5147 210.124 21.9457C210.453 21.3785 210.618 20.7152 210.618 19.9596C210.618 19.204 210.453 18.5112 210.124 17.9421C209.794 17.3749 209.33 16.9315 208.732 16.6119C208.135 16.2941 207.435 16.1334 206.638 16.1334H201.97V23.7526V23.7544Z" fill="white"/>
<path d="M223.152 35.6155C221.576 35.6155 220.149 35.2479 218.873 34.5107C217.596 33.7735 216.579 32.7685 215.822 31.4937C215.063 30.2189 214.686 28.7742 214.686 27.1613C214.686 25.5484 215.06 24.0796 215.807 22.8141C216.555 21.5503 217.567 20.5545 218.843 19.8266C220.12 19.1005 221.555 18.7366 223.152 18.7366C224.749 18.7366 226.179 19.1005 227.446 19.8266C228.712 20.5545 229.72 21.5503 230.467 22.8141C231.215 24.0796 231.588 25.5281 231.588 27.1613C231.588 28.7945 231.209 30.2485 230.451 31.5233C229.692 32.7981 228.675 33.7994 227.4 34.5255C226.123 35.2534 224.708 35.6155 223.152 35.6155ZM223.152 32.4784C224.09 32.4784 224.926 32.2493 225.664 31.7912C226.403 31.333 226.985 30.7011 227.415 29.8938C227.844 29.0864 228.058 28.1756 228.058 27.1594C228.058 26.1433 227.844 25.2435 227.415 24.4565C226.985 23.6695 226.403 23.0431 225.664 22.5739C224.926 22.1065 224.088 21.8718 223.152 21.8718C222.216 21.8718 221.372 22.1065 220.623 22.5739C219.876 23.0413 219.287 23.6695 218.858 24.4565C218.429 25.2435 218.214 26.1451 218.214 27.1594C218.214 28.1737 218.429 29.0864 218.858 29.8938C219.287 30.7011 219.876 31.333 220.623 31.7912C221.37 32.2493 222.214 32.4784 223.152 32.4784Z" fill="white"/>
<path d="M233.385 16.8835V13H236.765V16.8835H233.385ZM233.385 35.2571V19.095H236.765V35.2589H233.385V35.2571Z" fill="white"/>
<path d="M239.218 35.2571V19.095H242.448V22.2616L242.06 21.8441C242.459 20.828 243.096 20.0576 243.975 19.5292C244.852 19.0008 245.869 18.7366 247.025 18.7366C248.182 18.7366 249.279 18.9952 250.196 19.5125C251.114 20.0298 251.832 20.7485 252.35 21.663C252.868 22.5794 253.127 23.6344 253.127 24.8297V35.2571H249.747V25.7257C249.747 24.9295 249.597 24.2477 249.297 23.6787C248.998 23.1115 248.579 22.6681 248.041 22.3485C247.503 22.0307 246.885 21.87 246.185 21.87C245.486 21.87 244.864 22.0289 244.315 22.3485C243.766 22.6681 243.342 23.1097 243.044 23.6787C242.744 24.2459 242.594 24.9295 242.594 25.7257V35.2571H239.214H239.218Z" fill="white"/>
<path d="M262.255 35.4363C260.56 35.4363 259.243 34.9577 258.305 34.0026C257.367 33.0474 256.899 31.7024 256.899 29.9694V22.171H254.028V19.0931H254.477C255.236 19.0931 255.828 18.8751 256.257 18.4354C256.686 17.9975 256.901 17.4007 256.901 16.6433V15.3888H260.281V19.0931H263.961V22.171H260.281V29.8198C260.281 30.3777 260.37 30.8507 260.551 31.2387C260.731 31.6267 261.019 31.926 261.419 32.1347C261.819 32.3435 262.337 32.4488 262.975 32.4488C263.134 32.4488 263.313 32.4396 263.513 32.4192C263.713 32.3989 263.902 32.3786 264.081 32.3601V35.2589C263.802 35.2995 263.493 35.3383 263.154 35.379C262.816 35.4196 262.516 35.4381 262.257 35.4381L262.255 35.4363Z" fill="white"/>
<path d="M28.249 36.3065L21.1748 31.1621L9.38539 22.5843L12.5452 18.2302L24.9417 27.251L28.6017 29.9115L29.9489 30.8929L30.3161 31.1621L31.7124 32.1754L30.1946 34.2713L30.1802 34.2916L30.1571 34.3206L30.0327 34.4914L29.9518 34.3495L29.8593 34.1845L29.6945 33.9008L29.6887 33.895L29.6656 33.8516L29.5326 34.0803L29.2435 34.5782L28.249 36.3065Z" fill="url(#paint0_linear_1136_109)"/>
<path d="M27.5035 35.1456L26.2112 31.1621L24.9421 27.251L20.1835 12.5821L25.2948 10.9175L30.0273 25.5111L31.4266 29.8188L31.8631 31.1621L32.6147 33.4839L30.195 34.2713L30.1574 34.2829L30.1343 34.2887L29.9522 34.3495L29.8596 34.1845L29.6949 33.9008L29.6891 33.895L29.6659 33.8516L29.533 34.0803L29.2439 34.5782L27.5035 35.1456Z" fill="url(#paint1_linear_1136_109)"/>
<path d="M32.5771 35.0703L30.1804 34.2915L30.1573 34.2829L30.1197 34.2713L29.8595 34.1844L29.6948 33.9007L29.689 33.8949L29.6658 33.8515L29.5329 34.0802L27.4658 33.4086L28.1943 31.1621L28.602 29.9114L30.0272 25.5111L34.7887 10.8422L39.8999 12.5039L35.1645 27.0975L33.8462 31.1621L32.5771 35.0703Z" fill="url(#paint2_linear_1136_109)"/>
<path d="M50.7835 22.3879L47.6245 18.0339L28.4553 31.9805L31.6143 36.3344L50.7835 22.3879Z" fill="url(#paint3_linear_1136_109)"/>
<path d="M53.3833 36.541L31.2153 36.541L30.0329 34.4913L29.9519 34.3495L29.8594 34.1845L29.6946 33.9008L29.6889 33.895L29.6889 31.1621L53.3833 31.1621L53.3833 36.541Z" fill="url(#paint4_linear_1136_109)"/>
<path d="M28.1135 36.541L6.00038 36.541L6.00038 31.1621L29.6948 31.1621L29.6948 33.9008L29.689 33.895L29.6659 33.8516L29.5329 34.0803L29.2438 34.5782L28.2493 36.3065L28.1135 36.541Z" fill="url(#paint5_linear_1136_109)"/>
<defs>
<linearGradient id="paint0_linear_1136_109" x1="20.5503" y1="18.2302" x2="20.5503" y2="36.3065" gradientUnits="userSpaceOnUse">
<stop stop-color="#FF65B0"/>
<stop offset="1" stop-color="white"/>
</linearGradient>
<linearGradient id="paint1_linear_1136_109" x1="26.3991" y1="10.9175" x2="26.3991" y2="35.1456" gradientUnits="userSpaceOnUse">
<stop stop-color="#FE7772"/>
<stop offset="0.21" stop-color="#FE7A75"/>
<stop offset="0.38" stop-color="#FE837F"/>
<stop offset="0.53" stop-color="#FE938F"/>
<stop offset="0.67" stop-color="#FEAAA7"/>
<stop offset="0.81" stop-color="#FEC8C6"/>
<stop offset="0.94" stop-color="#FEEBEA"/>
<stop offset="1" stop-color="white"/>
</linearGradient>
<linearGradient id="paint2_linear_1136_109" x1="33.6814" y1="10.8422" x2="33.6814" y2="35.0703" gradientUnits="userSpaceOnUse">
<stop stop-color="#6DF047"/>
<stop offset="0.14" stop-color="#70F04B"/>
<stop offset="0.29" stop-color="#7AF157"/>
<stop offset="0.44" stop-color="#8AF36C"/>
<stop offset="0.59" stop-color="#A1F588"/>
<stop offset="0.74" stop-color="#BEF8AD"/>
<stop offset="0.89" stop-color="#E2FCDA"/>
<stop offset="1" stop-color="white"/>
</linearGradient>
<linearGradient id="paint3_linear_1136_109" x1="39.6175" y1="18.0344" x2="39.6175" y2="36.3336" gradientUnits="userSpaceOnUse">
<stop stop-color="#7A15FF"/>
<stop offset="0.11" stop-color="#7C19FF"/>
<stop offset="0.24" stop-color="#8528FF"/>
<stop offset="0.38" stop-color="#9240FF"/>
<stop offset="0.53" stop-color="#A561FF"/>
<stop offset="0.68" stop-color="#BE8CFF"/>
<stop offset="0.84" stop-color="#DCC1FF"/>
<stop offset="1" stop-color="white"/>
</linearGradient>
<linearGradient id="paint4_linear_1136_109" x1="29.6889" y1="33.8515" x2="53.3833" y2="33.8516" gradientUnits="userSpaceOnUse">
<stop stop-color="white"/>
<stop offset="0.06" stop-color="#D5DEFF"/>
<stop offset="0.14" stop-color="#AABBFF"/>
<stop offset="0.22" stop-color="#849CFF"/>
<stop offset="0.31" stop-color="#6382FF"/>
<stop offset="0.4" stop-color="#496DFF"/>
<stop offset="0.51" stop-color="#355DFF"/>
<stop offset="0.62" stop-color="#2651FF"/>
<stop offset="0.76" stop-color="#1E4BFF"/>
<stop offset="1" stop-color="#1C49FF"/>
</linearGradient>
<linearGradient id="paint5_linear_1136_109" x1="6.00038" y1="33.8515" x2="29.6948" y2="33.8516" gradientUnits="userSpaceOnUse">
<stop stop-color="#FF9D46"/>
<stop offset="0.13" stop-color="#FF9F4A"/>
<stop offset="0.28" stop-color="#FFA657"/>
<stop offset="0.44" stop-color="#FFB16D"/>
<stop offset="0.59" stop-color="#FFC28C"/>
<stop offset="0.75" stop-color="#FFD6B3"/>
<stop offset="0.92" stop-color="#FFF0E2"/>
<stop offset="1" stop-color="white"/>
</linearGradient>
</defs>
</svg>
