<svg width="118" height="118" viewBox="0 0 118 118" fill="none" xmlns="http://www.w3.org/2000/svg">
<g clip-path="url(#clip0_1104_41)">
<path d="M98.3646 19.6354L76.4969 41.5031C72.0184 37.0246 65.832 34.2542 59 34.2542V3.33008C74.3719 3.33008 88.2913 9.55955 98.3646 19.6354Z" fill="url(#paint0_linear_1104_41)"/>
<path d="M41.5031 41.503C37.0246 45.9814 34.2542 52.1679 34.2542 58.9998H3.33008C3.33008 43.6279 9.55955 29.7085 19.6354 19.6353L41.5031 41.503Z" fill="url(#paint1_linear_1104_41)"/>
<path d="M58.9998 3.33008V34.2542C52.1679 34.2542 45.9814 37.0246 41.503 41.5031L19.6353 19.6354C29.7085 9.55955 43.6279 3.33008 58.9998 3.33008Z" fill="url(#paint2_linear_1104_41)"/>
<path d="M114.67 58.9998H83.7455C83.7455 52.1679 80.975 45.9814 76.4966 41.503L98.3643 19.6353C108.44 29.7085 114.67 43.6279 114.67 58.9998Z" fill="url(#paint3_linear_1104_41)"/>
<path d="M114.67 59C114.67 74.3719 108.44 88.2913 98.3643 98.3646L76.4966 76.4969C80.975 72.0184 83.7455 65.832 83.7455 59H114.67Z" fill="url(#paint4_linear_1104_41)"/>
<path d="M41.5031 76.4969L19.6354 98.3646C9.55955 88.2913 3.33008 74.3719 3.33008 59H34.2542C34.2542 65.832 37.0246 72.0184 41.5031 76.4969Z" fill="url(#paint5_linear_1104_41)"/>
<path d="M98.3646 98.3645C88.2913 108.44 74.3719 114.67 59 114.67V83.7457C65.832 83.7457 72.0184 80.9753 76.4969 76.4968L98.3646 98.3645Z" fill="url(#paint6_linear_1104_41)"/>
<path d="M58.9998 83.7457V114.67C43.6279 114.67 29.7085 108.44 19.6353 98.3645L41.503 76.4968C45.9814 80.9753 52.1679 83.7457 58.9998 83.7457Z" fill="url(#paint7_linear_1104_41)"/>
<path d="M88.8611 29.1383L76.4964 41.5031C72.0179 37.0246 65.8315 34.2542 58.9995 34.2542V16.7708C70.6623 16.7708 81.2168 21.4968 88.8611 29.1383Z" fill="url(#paint8_linear_1104_41)"/>
<path d="M41.5028 41.5032C37.0244 45.9817 34.2539 52.1681 34.2539 59.0001H16.7705C16.7705 47.3373 21.4963 36.7827 29.1381 29.1384L41.5028 41.5032Z" fill="url(#paint9_linear_1104_41)"/>
<path d="M58.9998 16.7708V34.2542C52.1679 34.2542 45.9814 37.0246 41.503 41.5031L29.1382 29.1383C36.7825 21.4968 47.337 16.7708 58.9998 16.7708Z" fill="url(#paint10_linear_1104_41)"/>
<path d="M101.229 59.0001H83.7455C83.7455 52.1681 80.975 45.9817 76.4966 41.5032L88.8614 29.1384C96.5029 36.7827 101.229 47.3373 101.229 59.0001Z" fill="url(#paint11_linear_1104_41)"/>
<path d="M101.229 59C101.229 70.6628 96.5029 81.2173 88.8614 88.8616L76.4966 76.4969C80.975 72.0184 83.7455 65.832 83.7455 59H101.229Z" fill="url(#paint12_linear_1104_41)"/>
<path d="M41.5028 76.4969L29.1381 88.8616C21.4965 81.2173 16.7705 70.6628 16.7705 59H34.2539C34.2539 65.832 37.0244 72.0184 41.5028 76.4969Z" fill="url(#paint13_linear_1104_41)"/>
<path d="M88.8611 88.8616C81.2168 96.5031 70.6623 101.229 58.9995 101.229V83.7457C65.8315 83.7457 72.0179 80.9753 76.4964 76.4968L88.8611 88.8616Z" fill="url(#paint14_linear_1104_41)"/>
<path d="M58.9998 83.7457V101.229C47.337 101.229 36.7825 96.5031 29.1382 88.8616L41.503 76.4968C45.9814 80.9753 52.1679 83.7457 58.9998 83.7457Z" fill="url(#paint15_linear_1104_41)"/>
<path d="M104.793 27.3403L82.0775 50.0556C83.1539 52.83 83.7455 55.8457 83.7455 58.9997C83.7455 65.8317 80.975 72.0181 76.4966 76.4966C72.0181 80.975 65.8317 83.7455 58.9997 83.7455C55.8457 83.7455 52.8297 83.1539 50.0556 82.0775L27.3403 104.793C36.3292 111.019 47.2381 114.67 59 114.67C74.3719 114.67 88.2913 108.44 98.3645 98.3643C108.44 88.2913 114.67 74.3717 114.67 58.9997C114.67 47.2381 111.019 36.3292 104.793 27.3403Z" fill="url(#paint16_linear_1104_41)"/>
<path d="M12.0115 82.031L0.122239 115.29C-0.452953 116.899 1.10095 118.453 2.71014 117.878L35.9688 105.988C42.6043 99.353 18.6469 75.3957 12.0115 82.031Z" fill="url(#paint17_linear_1104_41)"/>
<path d="M76.1183 65.8425L35.9683 105.988C35.3123 104.852 34.3156 103.846 33.0386 103.133C31.2941 102.167 28.5657 102.696 26.6768 103.269C26.2657 103.391 25.8897 103.177 25.7367 102.849C25.6405 102.652 25.6231 102.412 25.7279 102.176C25.7323 102.176 25.7323 102.171 25.7323 102.171C25.8374 101.931 25.9292 101.686 26.0079 101.441C26.0428 101.323 26.0778 101.205 26.113 101.087C26.1173 101.078 26.1173 101.074 26.1173 101.065C26.218 100.685 26.2879 100.305 26.3272 99.9153C26.3404 99.7885 26.3492 99.6573 26.3577 99.5306C26.3686 99.3193 26.3707 99.1081 26.3638 98.8968C26.3159 97.4186 25.833 95.9505 24.9147 94.7034C24.6916 94.3973 24.4424 94.1088 24.1671 93.8332C23.8915 93.5577 23.603 93.3085 23.2969 93.0854C21.8714 92.0362 20.1574 91.5551 18.4698 91.6426C18.343 91.6514 18.2118 91.6602 18.085 91.6731C17.6958 91.7125 17.3111 91.7824 16.9351 91.883C16.9263 91.883 16.9219 91.883 16.9131 91.8874C16.7951 91.9223 16.6769 91.9573 16.5589 91.9924C16.4321 92.0318 16.3097 92.0755 16.1873 92.1236C16.0693 92.1674 15.9511 92.2155 15.8331 92.268C15.8287 92.268 15.8287 92.268 15.8243 92.2724C15.588 92.3774 15.3476 92.3599 15.151 92.2636C14.8231 92.1107 14.6089 91.7345 14.7313 91.3235C15.3041 89.4346 15.8331 86.7107 14.8669 84.9661C14.154 83.685 13.1528 82.688 12.0117 82.0323L52.1576 41.8822C53.9677 40.0764 56.8973 40.0764 58.7032 41.8822L62.118 45.2971L72.7035 55.8826L76.1183 59.2974C77.924 61.1028 77.924 64.0322 76.1183 65.8425Z" fill="url(#paint18_linear_1104_41)"/>
<path d="M72.7034 55.8821L25.7366 102.849C25.6404 102.652 25.623 102.412 25.7278 102.176C25.7322 102.176 25.7322 102.171 25.7322 102.171C25.8373 101.931 26.2919 100.3 26.3269 99.9151C26.3445 99.7839 26.353 99.6571 26.3574 99.5303C26.4449 97.8427 25.9638 96.1287 24.9146 94.7032C24.6915 94.3971 24.4423 94.1086 24.167 93.833C23.8914 93.5575 23.6029 93.3083 23.2968 93.0852C21.8713 92.036 20.1573 91.5549 18.4697 91.6424C18.3429 91.6468 18.2161 91.6556 18.0849 91.6729C17.7001 91.7079 17.3154 91.778 16.935 91.8828C16.9262 91.8828 16.9218 91.8828 16.913 91.8872C16.795 91.9177 15.9512 92.215 15.833 92.2676C15.8286 92.2676 15.8286 92.2676 15.8242 92.272C15.5879 92.377 15.3475 92.3594 15.1509 92.2632L62.1177 45.2964L72.7034 55.8821Z" fill="url(#paint19_linear_1104_41)"/>
<path d="M6.83551 111.164C5.57685 109.906 4.1701 108.896 2.68215 108.128L0.122239 115.29C-0.452953 116.899 1.10095 118.453 2.71014 117.878L9.87135 115.318C9.10412 113.829 8.09418 112.423 6.83551 111.164Z" fill="url(#paint20_linear_1104_41)"/>
<path d="M114.255 3.74516L65.7746 52.2258L58.6828 45.134C57.137 43.5882 57.137 41.0818 58.6828 39.536L62.9243 35.2944C64.7552 33.4636 65.7836 30.9805 65.7836 28.3914V23.1057C65.7836 18.9473 68.4178 15.2453 72.3467 13.8825L111.991 0.131125C114.186 -0.630322 115.898 2.10242 114.255 3.74516Z" fill="url(#paint21_linear_1104_41)"/>
<path d="M114.255 3.74528L65.7744 52.2259L72.8662 59.3177C74.412 60.8635 76.9185 60.8635 78.4643 59.3177L82.7058 55.0762C84.5366 53.2454 87.0197 52.2169 89.6088 52.2169H94.8943C99.0527 52.2169 102.755 49.5827 104.117 45.6538L117.869 6.00903C118.63 3.81446 115.898 2.10253 114.255 3.74528Z" fill="url(#paint22_linear_1104_41)"/>
<path d="M91.4137 28.8627L115.765 4.51118C116.371 3.90499 116.443 2.91819 115.877 2.27404C115.257 1.56813 114.181 1.54221 113.528 2.19584L89.1942 26.5295C87.601 28.1228 85.3932 28.995 83.1487 28.7967C81.0725 28.6135 78.9273 29.3995 77.4472 31.1556C75.3498 33.644 75.3831 37.3557 77.5203 39.8101C80.0862 42.7568 84.5609 42.8723 87.2766 40.1567C88.6988 38.7344 89.3439 36.83 89.2129 34.97C89.0528 32.7037 89.8073 30.4691 91.4137 28.8627Z" fill="url(#paint23_linear_1104_41)"/>
<path d="M65.3722 31.1919C64.9123 32.7271 64.0779 34.1403 62.9243 35.2941L58.6828 39.5357C57.137 41.0815 57.137 43.5879 58.6828 45.1337L65.7746 52.2255L72.8664 59.3173C74.4122 60.8631 76.9186 60.8631 78.4644 59.3173L82.706 55.0758C83.8598 53.9219 85.273 53.0876 86.8082 52.6279L65.3722 31.1919Z" fill="url(#paint24_linear_1104_41)"/>
<path d="M70.1814 71.7798L46.2207 47.8189L55.7697 38.2699C56.8756 37.1639 58.6685 37.1639 59.7743 38.2699L79.7304 58.226C80.8364 59.332 80.8364 61.1249 79.7304 62.2306L70.1814 71.7798Z" fill="url(#paint25_linear_1104_41)"/>
</g>
<defs>
<linearGradient id="paint0_linear_1104_41" x1="52.9741" y1="1.23662" x2="89.7786" y2="38.0411" gradientUnits="userSpaceOnUse">
<stop stop-color="#FFF5D9"/>
<stop offset="1" stop-color="#FFCE47"/>
</linearGradient>
<linearGradient id="paint1_linear_1104_41" x1="10.4251" y1="38.2598" x2="26.8991" y2="54.7338" gradientUnits="userSpaceOnUse">
<stop stop-color="#6FA953"/>
<stop offset="1" stop-color="#43765A"/>
</linearGradient>
<linearGradient id="paint2_linear_1104_41" x1="37.2918" y1="9.45682" x2="58.9413" y2="31.1066" gradientUnits="userSpaceOnUse">
<stop stop-color="#E4E08E"/>
<stop offset="1" stop-color="#6FA953"/>
</linearGradient>
<linearGradient id="paint3_linear_1104_41" x1="76.7765" y1="25.0392" x2="111.915" y2="60.1775" gradientUnits="userSpaceOnUse">
<stop stop-color="#FFCE47"/>
<stop offset="1" stop-color="#FF9356"/>
</linearGradient>
<linearGradient id="paint4_linear_1104_41" x1="84.5826" y1="56.7478" x2="104.953" y2="77.1183" gradientUnits="userSpaceOnUse">
<stop stop-color="#FF9356"/>
<stop offset="1" stop-color="#FF755C"/>
</linearGradient>
<linearGradient id="paint5_linear_1104_41" x1="7.48993" y1="59.2274" x2="31.4594" y2="83.1969" gradientUnits="userSpaceOnUse">
<stop stop-color="#7ACBFF"/>
<stop offset="1" stop-color="#45A2E0"/>
</linearGradient>
<linearGradient id="paint6_linear_1104_41" x1="58.9609" y1="86.7959" x2="79.0695" y2="106.904" gradientUnits="userSpaceOnUse">
<stop stop-color="#FF755C"/>
<stop offset="1" stop-color="#FF4181"/>
</linearGradient>
<linearGradient id="paint7_linear_1104_41" x1="24.6359" y1="76.3733" x2="73.26" y2="124.998" gradientUnits="userSpaceOnUse">
<stop stop-color="#FF4181"/>
<stop offset="1" stop-color="#843561"/>
</linearGradient>
<linearGradient id="paint8_linear_1104_41" x1="81.2282" y1="38.9941" x2="58.5766" y2="16.3425" gradientUnits="userSpaceOnUse">
<stop stop-color="#FFF5D9"/>
<stop offset="1" stop-color="#FFCE47"/>
</linearGradient>
<linearGradient id="paint9_linear_1104_41" x1="36.473" y1="57.588" x2="8.39829" y2="29.5132" gradientUnits="userSpaceOnUse">
<stop stop-color="#6FA953"/>
<stop offset="1" stop-color="#43765A"/>
</linearGradient>
<linearGradient id="paint10_linear_1104_41" x1="56.1084" y1="34.9939" x2="31.1234" y2="10.0089" gradientUnits="userSpaceOnUse">
<stop stop-color="#E4E08E"/>
<stop offset="1" stop-color="#6FA953"/>
</linearGradient>
<linearGradient id="paint11_linear_1104_41" x1="100.963" y1="58.7284" x2="74.5866" y2="32.3524" gradientUnits="userSpaceOnUse">
<stop stop-color="#FFCE47"/>
<stop offset="1" stop-color="#FF9356"/>
</linearGradient>
<linearGradient id="paint12_linear_1104_41" x1="99.1443" y1="78.0299" x2="81.5229" y2="60.4086" gradientUnits="userSpaceOnUse">
<stop stop-color="#FF9356"/>
<stop offset="1" stop-color="#FF755C"/>
</linearGradient>
<linearGradient id="paint13_linear_1104_41" x1="43.3964" y1="85.6312" x2="10.8622" y2="53.097" gradientUnits="userSpaceOnUse">
<stop stop-color="#7ACBFF"/>
<stop offset="1" stop-color="#45A2E0"/>
</linearGradient>
<linearGradient id="paint14_linear_1104_41" x1="78.9709" y1="100.086" x2="55.2575" y2="76.3726" gradientUnits="userSpaceOnUse">
<stop stop-color="#FF755C"/>
<stop offset="1" stop-color="#FF4181"/>
</linearGradient>
<linearGradient id="paint15_linear_1104_41" x1="59.535" y1="101.77" x2="30.5949" y2="72.8296" gradientUnits="userSpaceOnUse">
<stop stop-color="#FF4181"/>
<stop offset="1" stop-color="#843561"/>
</linearGradient>
<linearGradient id="paint16_linear_1104_41" x1="82.9012" y1="82.9014" x2="66.0825" y2="66.0827" gradientUnits="userSpaceOnUse">
<stop stop-color="#843561" stop-opacity="0"/>
<stop offset="1" stop-color="#3A2F4D"/>
</linearGradient>
<linearGradient id="paint17_linear_1104_41" x1="2.8329" y1="91.2029" x2="26.7868" y2="115.157" gradientUnits="userSpaceOnUse">
<stop stop-color="#FFE0EA"/>
<stop offset="1" stop-color="#FFC0D5"/>
</linearGradient>
<linearGradient id="paint18_linear_1104_41" x1="12.0117" y1="73.258" x2="77.4726" y2="73.258" gradientUnits="userSpaceOnUse">
<stop stop-color="#FFCE47"/>
<stop offset="1" stop-color="#FF9356"/>
</linearGradient>
<linearGradient id="paint19_linear_1104_41" x1="53.8676" y1="84.0133" x2="29.6825" y2="59.8282" gradientUnits="userSpaceOnUse">
<stop stop-color="#FFCE47"/>
<stop offset="1" stop-color="#FF9356"/>
</linearGradient>
<linearGradient id="paint20_linear_1104_41" x1="3.02259" y1="113.521" x2="9.13461" y2="119.633" gradientUnits="userSpaceOnUse">
<stop stop-color="#2F73A0"/>
<stop offset="1" stop-color="#174461"/>
</linearGradient>
<linearGradient id="paint21_linear_1104_41" x1="85.1327" y1="20.71" x2="88.2871" y2="25.892" gradientUnits="userSpaceOnUse">
<stop stop-color="#EDF5FF"/>
<stop offset="1" stop-color="#C7E9FF"/>
</linearGradient>
<linearGradient id="paint22_linear_1104_41" x1="93.1434" y1="30.6813" x2="97.4242" y2="38.3416" gradientUnits="userSpaceOnUse">
<stop stop-color="#EDF5FF"/>
<stop offset="1" stop-color="#C7E9FF"/>
</linearGradient>
<linearGradient id="paint23_linear_1104_41" x1="101.232" y1="25.5573" x2="93.8807" y2="18.2063" gradientUnits="userSpaceOnUse">
<stop stop-color="#2F73A0"/>
<stop offset="1" stop-color="#174461"/>
</linearGradient>
<linearGradient id="paint24_linear_1104_41" x1="73.38" y1="44.616" x2="69.3641" y2="48.6319" gradientUnits="userSpaceOnUse">
<stop stop-color="#7ACBFF" stop-opacity="0"/>
<stop offset="1" stop-color="#2F73A0"/>
</linearGradient>
<linearGradient id="paint25_linear_1104_41" x1="65.8536" y1="50.4783" x2="59.6019" y2="60.5192" gradientUnits="userSpaceOnUse">
<stop stop-color="#2F73A0"/>
<stop offset="1" stop-color="#174461"/>
</linearGradient>
<clipPath id="clip0_1104_41">
<rect width="118" height="118" fill="white"/>
</clipPath>
</defs>
</svg>
